<svg viewBox="0 0 86 24" xmlns="http://www.w3.org/2000/svg"><g fill="#FFF"><path d="M13.873 10.84c-.024-2.575 2.111-3.828 2.209-3.887-1.21-1.76-3.083-2-3.742-2.02-1.574-.165-3.1.941-3.902.941-.818 0-2.053-.924-3.384-.897C3.342 5.003 1.74 5.993.861 7.53c-1.813 3.135-.46 7.74 1.276 10.274.87 1.242 1.885 2.627 3.214 2.578 1.3-.053 1.786-.828 3.355-.828 1.555 0 2.011.828 3.367.796 1.395-.02 2.274-1.246 3.113-2.499 1.004-1.42 1.407-2.822 1.423-2.894-.032-.01-2.71-1.03-2.737-4.117M11.312 3.267c.7-.873 1.178-2.061 1.045-3.267-1.012.045-2.278.7-3.007 1.553-.645.753-1.221 1.986-1.072 3.147 1.137.084 2.304-.573 3.034-1.433"/><path d="M30.052 20.844h1.79L28.45 10.21h-2.084L22.99 20.844h1.742l.933-3.123h3.406l.98 3.123zm-2.161-7.21l.886 2.776h-2.815l.87-2.775c.229-.884.395-1.552.499-2.004h.031c.259 1.051.435 1.72.529 2.004zM39.457 20.007c.698-.756 1.047-1.787 1.047-3.091 0-1.167-.298-2.109-.893-2.825-.596-.715-1.34-1.072-2.232-1.072-1.14 0-1.99.457-2.55 1.374h-.032l-.093-1.216h-1.477c.04.861.062 1.7.062 2.52v8.255h1.68v-4.023c.436.726 1.156 1.088 2.157 1.088.928 0 1.705-.336 2.33-1.01zm-1.162-4.874c.333.484.498 1.099.498 1.845 0 .81-.176 1.462-.529 1.957-.352.493-.844.741-1.477.741-.539 0-.977-.192-1.314-.576q-.506-.577-.506-1.411v-1.28c0-.136.026-.308.078-.518.104-.453.324-.818.661-1.097a1.728 1.728 0 011.127-.419c.612 0 1.1.253 1.462.758zM48.15 20.007c.7-.756 1.048-1.787 1.048-3.091 0-1.167-.299-2.109-.893-2.825-.596-.715-1.341-1.072-2.232-1.072-1.142 0-1.992.457-2.55 1.374h-.032l-.094-1.216H41.92c.04.861.062 1.7.062 2.52v8.255h1.68v-4.023c.438.726 1.157 1.088 2.158 1.088.928 0 1.704-.336 2.33-1.01zm-1.162-4.874q.499.726.499 1.845c0 .81-.177 1.462-.53 1.957-.351.493-.843.741-1.477.741-.54 0-.978-.193-1.315-.576-.336-.385-.505-.855-.505-1.411v-1.28c0-.136.028-.308.079-.518a1.94 1.94 0 01.66-1.097 1.735 1.735 0 011.129-.419c.61 0 1.098.253 1.46.758z" fill-rule="evenodd"/><path d="M58.919 17.862c0 .904-.311 1.64-.932 2.208-.682.62-1.635.931-2.856.931-1.128 0-2.032-.22-2.714-.662l.388-1.42a4.63 4.63 0 002.426.663c.634 0 1.126-.145 1.477-.434.353-.29.53-.676.53-1.158 0-.433-.146-.795-.436-1.09-.29-.293-.771-.568-1.445-.819-1.836-.694-2.754-1.71-2.754-3.046 0-.872.324-1.587.971-2.145.648-.558 1.506-.837 2.574-.837.954 0 1.75.17 2.38.505l-.421 1.39c-.594-.327-1.265-.49-2.015-.49-.592 0-1.057.148-1.39.442-.279.263-.421.583-.421.963 0 .42.161.768.483 1.04.28.253.788.527 1.524.821.902.37 1.565.8 1.99 1.293.428.494.64 1.11.64 1.845M64.485 14.455h-1.85v3.722c0 .947.325 1.42.98 1.42.3 0 .548-.026.745-.08l.047 1.294c-.331.125-.767.188-1.306.188-.664 0-1.181-.206-1.556-.616-.374-.41-.56-1.098-.56-2.067v-3.864h-1.102v-1.279h1.102V11.77l1.65-.505v1.908h1.85v1.282"/><path d="M71.825 19.85c.664-.757.996-1.724.996-2.903 0-1.147-.32-2.081-.965-2.806-.675-.745-1.565-1.12-2.675-1.12-1.151 0-2.066.38-2.745 1.136-.678.757-1.019 1.73-1.019 2.918 0 1.135.33 2.077.988 2.823.658.746 1.541 1.12 2.652 1.12 1.15 0 2.074-.39 2.768-1.168zm-1.195-4.673c.3.505.45 1.107.45 1.81 0 .703-.155 1.31-.463 1.826-.365.617-.868.928-1.51.928-.657 0-1.163-.304-1.526-.914-.302-.502-.45-1.106-.45-1.809 0-.724.148-1.336.45-1.84.35-.61.868-.913 1.54-.913.652 0 1.157.304 1.509.912z" fill-rule="evenodd"/><path d="M78.282 14.675a2.884 2.884 0 00-.53-.047c-.59 0-1.047.225-1.368.679-.28.4-.42.904-.42 1.514v4.023h-1.679V15.59c0-.883-.016-1.689-.049-2.413H75.7l.062 1.466h.046c.178-.504.457-.91.84-1.214a2.01 2.01 0 011.214-.411c.155 0 .295.012.42.03l.001 1.626"/><path d="M85.731 17.42c.042-.21.062-.467.062-.772 0-.957-.223-1.762-.667-2.412-.56-.82-1.384-1.23-2.474-1.23-1.109 0-1.99.41-2.643 1.23-.623.768-.934 1.73-.934 2.886 0 1.176.336 2.117 1.003 2.816.67.698 1.59 1.048 2.762 1.048.973 0 1.818-.158 2.534-.474l-.263-1.182c-.612.243-1.293.362-2.039.362-.673 0-1.223-.179-1.648-.535-.467-.4-.712-.98-.73-1.737h5.037zm-1.866-2.524c.228.37.338.804.326 1.31l-3.497-.002c.051-.513.217-.956.497-1.325.34-.463.787-.694 1.337-.694.6 0 1.047.237 1.337.711z" fill-rule="evenodd"/><g><path d="M27.444 6.55h.878l-1.665-5.227h-1.023L23.978 6.55h.855l.458-1.534h1.672l.48 1.534zm-1.06-3.544l.434 1.365h-1.382l.427-1.365c.115-.434.191-.76.245-.984h.016c.13.519.213.844.26.984z" fill-rule="evenodd"/><path d="M32.465 2.781L31.06 6.55h-.801l-1.36-3.768h.886l.634 1.993c.107.333.198.651.267.953h.023a12.7 12.7 0 01.266-.953l.627-1.993h.863"/><path d="M35.395 6.115l.061.434.742.001a5.683 5.683 0 01-.054-.9V4.263c0-1.04-.489-1.56-1.458-1.56-.504 0-.931.11-1.275.327l.167.55c.282-.186.603-.28.97-.28.51 0 .77.25.77.745v.07c-1.374 0-2.168.48-2.168 1.41 0 .637.474 1.11 1.138 1.11.466 0 .832-.17 1.084-.52h.023zm-1.428-.683c0-.534.458-.76 1.374-.76v.582c0 .442-.39.767-.81.767-.327 0-.564-.193-.564-.589zM37.492 1.656c0 .287.377.504.86.504.54 0 .915-.2.915-.504.014-.287-.39-.496-.887-.496-.499 0-.888.21-.888.496zm1.614 4.893V2.781h-1.452V6.55h1.452z" fill-rule="evenodd"/><path d="M39.873 1.052h.824V6.55h-.824V1.052z"/><path d="M44.139 6.116l.062.433h.74a5.913 5.913 0 01-.052-.9V4.263c0-1.04-.49-1.559-1.459-1.559-.504 0-.931.109-1.275.326l.168.551c.282-.186.603-.28.97-.28.51 0 .77.25.77.745v.07c-1.374 0-2.167.48-2.167 1.41 0 .637.473 1.11 1.137 1.11.466 0 .832-.17 1.084-.52h.022zm-1.427-.684c0-.534.458-.76 1.374-.76v.582c0 .442-.39.767-.81.767-.327 0-.564-.193-.564-.589zM47.062 5.968c.252.442.64.667 1.167.667.946 0 1.642-.853 1.642-2.023 0-1.131-.627-1.907-1.52-1.907-.542 0-.939.21-1.183.628h-.015v-2.28h-.826v4.481c0 .371-.008.713-.03 1.015h.702l.047-.581h.016zm.09-1.605c0-.582.435-1 .91-1 .587 0 .97.52.97 1.28 0 .813-.368 1.325-.986 1.325-.503 0-.893-.427-.893-.946v-.66z" fill-rule="evenodd"/><path d="M51.09 1.052h.824V6.55h-.823V1.052z"/><path d="M53.926 4.867h2.475c.024-.101.03-.233.028-.38 0-1.078-.597-1.791-1.542-1.791-1.053 0-1.756.868-1.756 2.024 0 1.154.687 1.899 1.848 1.899.48 0 .893-.078 1.243-.233l-.128-.581a2.746 2.746 0 01-1 .178c-.687 0-1.151-.403-1.168-1.116zm.902-1.59c.527 0 .818.411.818.993h-1.72c.055-.574.428-.993.902-.993zM59.611 4.697c0 1.116.703 1.938 1.787 1.938 1.107 0 1.848-.822 1.848-2 0-1.148-.719-1.931-1.786-1.931-1.131 0-1.849.83-1.849 1.993zm.841-.024c0-.791.382-1.357.977-1.357.58 0 .962.574.962 1.34 0 .753-.39 1.358-.97 1.358s-.969-.566-.969-1.341z" fill-rule="evenodd"/><path d="M67.679 6.55h-.823V4.385c0-.667-.252-1-.749-1-.488 0-.825.426-.825.922V6.55h-.823V3.86c0-.334-.01-.69-.031-1.078h.725l.039.581h.023c.22-.402.671-.659 1.175-.659.778 0 1.289.605 1.289 1.59v2.256M73.073 3.41h-.907v1.829c0 .466.16.698.48.698.144 0 .268-.016.366-.039l.023.636c-.16.062-.375.094-.64.094-.651 0-1.038-.365-1.038-1.319v-1.9h-.54v-.628h.54v-.69l.809-.248v.938h.907v.628M77.439 6.55h-.825V4.401c0-.675-.253-1.016-.748-1.016-.428 0-.824.295-.824.892v2.271h-.825V1.052h.825v2.264h.016c.259-.41.634-.613 1.114-.613.786 0 1.267.62 1.267 1.605V6.55"/><path d="M79.177 4.867h2.474c.023-.101.03-.233.027-.38 0-1.078-.596-1.791-1.542-1.791-1.053 0-1.755.868-1.755 2.024 0 1.154.687 1.899 1.847 1.899.481 0 .894-.078 1.244-.233l-.129-.581c-.295.115-.63.178-.999.178-.687 0-1.151-.403-1.167-1.116zm.901-1.59c.527 0 .817.411.817.993h-1.718c.054-.574.428-.993.901-.993z" fill-rule="evenodd"/></g></g></svg>