<svg xmlns="http://www.w3.org/2000/svg" width="119" height="37"><path d="M23.22 27a2.5 2.5 0 011.126.254c.34.169.633.414.88.736.247.321.438.717.573 1.188.134.471.201 1.01.201 1.62 0 .555-.076 1.07-.227 1.543a3.768 3.768 0 01-.65 1.232c-.281.348-.62.62-1.02.815a3.003 3.003 0 01-1.338.293c-.421 0-.78-.064-1.078-.191a2.648 2.648 0 01-.8-.533V37h-1.812v-9.862h1.108c.234 0 .388.109.462.326l.146.688a3.91 3.91 0 011.05-.833c.39-.212.85-.319 1.379-.319zm-5.935.138v7.434h-1.812v-4.34c0-.111.006-.232.018-.366.012-.133.028-.266.048-.402a3.526 3.526 0 01-.323.587c-.01.01-.059.076-.147.199l-.34.475-.474.655-.536.743a778.8 778.8 0 01-1.445 2.014 1.579 1.579 0 01-.267.298.554.554 0 01-.378.145H10.52v-7.435h1.812v4.34c0 .112-.006.234-.019.367a7.743 7.743 0 01-.047.402 3.77 3.77 0 01.462-.783L13.07 31a258.562 258.562 0 001.009-1.406c.425-.594.91-1.266 1.452-2.014a1.35 1.35 0 01.272-.3.577.577 0 01.381-.142h1.1zm-15.789-.031c.127 0 .253.026.378.08a.65.65 0 01.312.318l1.775 3.13c.079.146.152.298.22.46.07.162.133.326.191.49.06-.164.122-.329.188-.493.065-.164.138-.316.216-.457l1.76-3.13c.089-.164.194-.272.316-.322a.953.953 0 01.374-.076h1.496v7.449H7.087V30.41c0-.17.008-.36.025-.573a4.62 4.62 0 01.085-.594l-2.215 4.015a.54.54 0 01-.514.311h-.19a.539.539 0 01-.514-.311l-2.246-4.036a7.065 7.065 0 01.118 1.188v4.145H0v-7.45h1.496zm21.1 1.306c-.377 0-.697.079-.96.236a2.899 2.899 0 00-.75.663v3.333c.206.246.43.42.672.522.242.1.505.152.788.152.275 0 .522-.051.742-.152.22-.101.407-.256.56-.464.155-.207.274-.47.357-.786.082-.317.124-.69.124-1.12 0-.435-.035-.803-.106-1.105a2.127 2.127 0 00-.304-.735 1.207 1.207 0 00-.48-.414 1.52 1.52 0 00-.643-.13zm47.066-4.796a1.017 1.017 0 01.85.43c.103.139.183.312.24.52.056.206.084.443.084.71 0 .24-.031.463-.094.67a1.647 1.647 0 01-.27.537 1.213 1.213 0 01-.99.485 1.08 1.08 0 01-.469-.092 1.212 1.212 0 01-.35-.254V28H68v-4.323h.401c.09 0 .148.043.173.13l.055.34c.131-.158.281-.287.449-.384.167-.098.362-.146.584-.146zm11.507.01c.193 0 .372.031.537.096.164.065.306.16.425.285.12.125.212.278.279.46.067.18.1.387.1.618 0 .106-.01.177-.034.213-.022.036-.063.054-.123.054h-2.019c.008.185.036.345.083.48.047.134.11.246.19.335a.74.74 0 00.283.199c.11.043.233.065.369.065.13 0 .241-.016.336-.047a1.51 1.51 0 00.246-.101c.07-.037.13-.071.179-.102a.265.265 0 01.136-.046.14.14 0 01.123.064l.188.251a1.221 1.221 0 01-.265.241 1.51 1.51 0 01-.315.161 1.71 1.71 0 01-.342.09 2.243 2.243 0 01-.342.026 1.6 1.6 0 01-.606-.113 1.343 1.343 0 01-.483-.332 1.547 1.547 0 01-.321-.544 2.215 2.215 0 01-.116-.748c0-.224.035-.434.104-.63.068-.195.167-.364.296-.508.128-.145.284-.259.468-.342.184-.084.392-.126.624-.126zm-8.375 0c.193 0 .372.031.536.096.165.065.306.16.426.285.119.125.212.278.279.46.066.18.1.387.1.618 0 .106-.011.177-.034.213-.023.036-.064.054-.123.054h-2.02c.008.185.036.345.084.48.047.134.11.246.19.335a.733.733 0 00.283.199c.11.043.233.065.368.065.13 0 .242-.016.336-.047.095-.03.177-.064.247-.101.07-.037.13-.071.178-.102a.265.265 0 01.136-.046.14.14 0 01.124.064l.188.251a1.221 1.221 0 01-.265.241c-.1.066-.204.12-.315.161a1.71 1.71 0 01-.342.09 2.243 2.243 0 01-.342.026 1.6 1.6 0 01-.606-.113 1.343 1.343 0 01-.484-.332 1.547 1.547 0 01-.32-.544 2.215 2.215 0 01-.116-.748c0-.224.034-.434.103-.63a1.5 1.5 0 01.296-.508c.128-.145.285-.259.468-.342a1.49 1.49 0 01.625-.126zm14.488.05v2.033a2.858 2.858 0 01-.028.315 1.47 1.47 0 01.127-.242l1.366-1.934a.475.475 0 01.098-.118.204.204 0 01.139-.054h.4v3.245h-.662v-2.033a2.218 2.218 0 01.025-.309c-.02.047-.04.09-.06.13a.806.806 0 01-.064.106l-1.365 1.937a.546.546 0 01-.099.116.203.203 0 01-.139.056h-.4v-3.248h.662zm5.188 0v3.245h-.632v-1.33h-.182a.573.573 0 00-.147.016.334.334 0 00-.1.044.346.346 0 00-.075.07.993.993 0 00-.063.093l-.588.868a.488.488 0 01-.153.18.477.477 0 01-.264.059h-.456l.848-1.18a.603.603 0 01.327-.287 1.206 1.206 0 01-.389-.121.892.892 0 01-.259-.2.735.735 0 01-.143-.25.852.852 0 01-.045-.269c0-.116.022-.23.066-.343a.8.8 0 01.212-.301 1.09 1.09 0 01.374-.213c.153-.054.338-.081.553-.081h1.116zm-8.68 0v1.256h1.359v-1.256h.66v3.245h-.66v-1.473h-1.36v1.473h-.662v-3.245h.663zm-8.376 0v2.73h1.153v-2.73h.663v2.73h1.153v-2.73h.66v3.245H74.75v-3.245h.663zm-5.974.49a.815.815 0 00-.436.113 1.249 1.249 0 00-.34.322v1.505a.8.8 0 00.303.26.87.87 0 00.365.074.71.71 0 00.606-.292c.145-.195.217-.486.217-.872 0-.2-.016-.37-.05-.51a1.006 1.006 0 00-.141-.346.553.553 0 00-.225-.194.722.722 0 00-.3-.06zm22.398-.038h-.465a.665.665 0 00-.268.047.454.454 0 00-.265.29.62.62 0 00-.028.181c0 .16.055.284.165.375.11.092.258.137.445.137h.416v-1.03zm-19.032-.007c-.24 0-.43.071-.567.213-.138.143-.225.342-.262.598h1.563c0-.114-.016-.22-.048-.32a.754.754 0 00-.14-.257.647.647 0 00-.23-.172.762.762 0 00-.316-.062zm8.376 0c-.24 0-.43.071-.568.213-.138.143-.224.342-.262.598h1.563c0-.114-.015-.22-.048-.32a.754.754 0 00-.14-.257.647.647 0 00-.23-.172.762.762 0 00-.315-.062zm13.459-7.758v2.73H96v-2.73h.66v2.73h.576v1.408a.212.212 0 01-.052.151.178.178 0 01-.136.056h-.41v-1.1h-2.66v-3.245h.663zm-17.454-1.336v1.288c.255.013.485.06.693.143.208.083.384.196.53.34.146.145.26.317.34.516.08.2.12.422.12.668 0 .246-.04.469-.12.668a1.506 1.506 0 01-.87.857 2.125 2.125 0 01-.693.145v1.056h-.62v-1.056a2.121 2.121 0 01-.694-.145 1.506 1.506 0 01-.87-.857c-.08-.2-.12-.422-.12-.668 0-.244.04-.465.121-.665a1.51 1.51 0 01.87-.857 2.13 2.13 0 01.693-.145v-1.288h.62zm7.49 1.276a1.024 1.024 0 01.851.43c.103.139.183.312.24.52.056.206.084.443.084.71 0 .24-.032.463-.094.67a1.659 1.659 0 01-.27.537 1.213 1.213 0 01-.99.485 1.08 1.08 0 01-.47-.092 1.222 1.222 0 01-.35-.254v1.377h-.662v-4.323h.4c.091 0 .148.043.173.13l.056.34c.131-.158.28-.287.448-.384a1.14 1.14 0 01.585-.146zm7.396 0c.18 0 .341.03.482.09.14.06.26.146.355.256.095.11.168.242.219.393.05.152.075.32.075.504v2.062h-.296a.28.28 0 01-.145-.03c-.033-.02-.06-.061-.083-.123l-.065-.264c-.08.074-.159.14-.237.199a1.464 1.464 0 01-.242.148c-.083.04-.173.07-.268.09-.096.02-.201.03-.316.03-.128 0-.246-.018-.356-.054a.778.778 0 01-.285-.163.772.772 0 01-.19-.272.96.96 0 01-.07-.382c0-.125.033-.247.098-.366a.9.9 0 01.32-.32 2.08 2.08 0 01.59-.234c.243-.061.543-.096.9-.105v-.216c0-.233-.048-.407-.144-.521-.096-.115-.239-.172-.425-.172a.9.9 0 00-.321.05 1.426 1.426 0 00-.225.106c-.064.038-.12.073-.17.106a.28.28 0 01-.157.05.186.186 0 01-.116-.037.293.293 0 01-.078-.09l-.12-.224a1.77 1.77 0 011.27-.512zm-11.218.009c.232 0 .442.04.63.118.188.078.348.19.481.334.133.144.235.32.307.525.072.205.108.437.108.693 0 .257-.036.488-.108.694a1.505 1.505 0 01-.307.526 1.344 1.344 0 01-.48.336 1.624 1.624 0 01-.631.117c-.234 0-.445-.039-.634-.117a1.36 1.36 0 01-.482-.336 1.497 1.497 0 01-.308-.526 2.095 2.095 0 01-.108-.694c0-.256.036-.488.108-.693a1.48 1.48 0 01.308-.525c.134-.145.294-.256.482-.334.189-.079.4-.118.634-.118zm36.804 0c.193 0 .372.033.536.097.165.065.306.16.426.285.119.125.212.278.279.46.066.18.1.387.1.618 0 .106-.011.177-.034.213-.023.036-.064.054-.123.054h-2.02c.009.185.037.345.083.48.048.134.111.246.19.335.08.089.174.155.284.199.11.043.233.065.368.065.13 0 .242-.016.336-.047.095-.03.177-.064.247-.101.07-.037.13-.071.179-.102a.26.26 0 01.135-.046.14.14 0 01.123.064l.189.251a1.213 1.213 0 01-.266.241c-.098.066-.203.12-.314.161a1.713 1.713 0 01-.342.09 2.38 2.38 0 01-.342.026c-.218 0-.42-.037-.606-.113a1.346 1.346 0 01-.484-.332 1.547 1.547 0 01-.32-.544 2.224 2.224 0 01-.116-.747c0-.225.034-.435.103-.63.069-.196.168-.365.296-.51.129-.144.285-.258.469-.341.184-.084.392-.126.624-.126zm-14.976 0c.232 0 .443.04.63.118.189.078.349.19.481.334.133.144.235.32.307.525.072.205.108.437.108.693 0 .257-.036.488-.108.694a1.506 1.506 0 01-.307.526 1.338 1.338 0 01-.48.336 1.62 1.62 0 01-.63.117 1.64 1.64 0 01-.634-.117 1.357 1.357 0 01-.483-.336 1.497 1.497 0 01-.308-.526 2.095 2.095 0 01-.108-.694c0-.256.036-.488.108-.693a1.48 1.48 0 01.308-.525c.134-.145.295-.256.483-.334.188-.079.4-.118.633-.118zm-34.02.051v2.033a2.895 2.895 0 01-.028.315c.041-.098.083-.178.127-.242l1.365-1.934a.484.484 0 01.099-.118.204.204 0 01.138-.054h.401v3.245h-.663v-2.033a2.209 2.209 0 01.025-.309c-.02.047-.04.09-.06.13a.761.761 0 01-.063.106l-1.366 1.937a.528.528 0 01-.098.116.201.201 0 01-.139.056H68v-3.248h.663zm29.75 0v2.033c0 .044-.002.094-.007.15-.005.054-.012.11-.02.165.04-.098.083-.178.126-.242l1.366-1.934a.476.476 0 01.099-.118.203.203 0 01.138-.054h.401v3.245h-.663v-2.033a1.993 1.993 0 01.025-.309c-.02.047-.04.09-.06.13a.761.761 0 01-.063.106l-1.366 1.937a.521.521 0 01-.099.116.2.2 0 01-.138.056h-.401v-3.248h.663zm10.587 0v1.257h1.359v-1.257h.66v3.245h-.66v-1.473h-1.36v1.473h-.662v-3.245H109zm-36.764 0v1.257h1.36v-1.257h.659v3.245h-.66v-1.473h-1.36v1.473h-.662v-3.245h.663zm14.8-.01c.045 0 .09.01.134.032a.274.274 0 01.115.124l.854 1.508c.029.055.055.115.079.178l.07.191c.022-.063.046-.127.07-.19a1.75 1.75 0 01.08-.179l.842-1.508a.246.246 0 01.114-.125c.045-.02.09-.03.136-.03h.54v3.254h-.596v-1.963a3.65 3.65 0 01.043-.47l-1.002 1.857a.246.246 0 01-.08.09.192.192 0 01-.11.034h-.072a.185.185 0 01-.11-.034.256.256 0 01-.078-.09l-1.02-1.868c.012.075.023.156.032.244a2.1 2.1 0 01.014.237v1.963h-.598v-3.255h.543zm18.47.01v1.257h1.36v-1.257h.66v3.245h-.66v-1.473h-1.36v1.473h-.662v-3.245h.663zm10.029 0v3.245h-.663v-3.245h.663zm-3.077 0v1.234h.61c.219 0 .402.027.553.081.15.055.27.127.363.218a.81.81 0 01.2.317 1.142 1.142 0 01-.015.785.9.9 0 01-.226.323 1.03 1.03 0 01-.367.212 1.52 1.52 0 01-.498.075h-1.249v-3.245h.63zM92.56 18.19a4.03 4.03 0 00-.598.059c-.163.03-.294.07-.395.117a.52.52 0 00-.217.17.38.38 0 00-.066.217c0 .076.012.142.035.195a.35.35 0 00.099.134c.042.035.09.06.148.076a.925.925 0 00.632-.076 1.4 1.4 0 00.362-.29v-.602zm-15.971-1.362c-.335.024-.593.136-.773.336-.18.2-.27.475-.27.822 0 .348.09.622.27.821.18.2.438.31.773.334v-2.313zm.58 0v2.313c.334-.023.591-.135.771-.334.18-.2.27-.473.27-.82 0-.348-.09-.623-.27-.823-.18-.2-.437-.312-.772-.336zm7.286.026a.816.816 0 00-.436.113 1.25 1.25 0 00-.34.323v1.504c.092.123.193.21.304.26a.87.87 0 00.365.074.712.712 0 00.606-.292c.144-.195.216-.486.216-.872 0-.2-.016-.37-.049-.51a1.006 1.006 0 00-.141-.346.56.56 0 00-.225-.194.722.722 0 00-.3-.06zm-3.6-.01c-.288 0-.502.1-.642.298-.14.198-.209.48-.209.844 0 .365.07.645.21.842.14.196.353.294.64.294.284 0 .496-.098.634-.294.14-.197.209-.477.209-.842s-.07-.646-.209-.844c-.138-.198-.35-.298-.633-.298zm21.828 0c-.288 0-.501.1-.641.298-.14.198-.21.48-.21.844 0 .365.07.645.21.842.14.196.353.294.641.294.284 0 .495-.098.634-.294.138-.197.208-.477.208-.842s-.07-.646-.208-.844c-.14-.198-.35-.298-.634-.298zm10.389 1.247h-.614v1.021h.62a.744.744 0 00.254-.04.516.516 0 00.182-.108.423.423 0 00.108-.163.6.6 0 00.003-.403.416.416 0 00-.102-.159.484.484 0 00-.18-.108.816.816 0 00-.271-.04zm4.599-1.282c-.24 0-.43.071-.567.213-.138.143-.225.342-.262.598h1.563c0-.114-.016-.22-.048-.32a.755.755 0 00-.14-.257.644.644 0 00-.23-.172.76.76 0 00-.316-.062zM78.414 9.051v2.729h.576v1.41a.207.207 0 01-.054.15.184.184 0 01-.137.056h-.41v-1.1h-2.488v.906a.22.22 0 01-.045.134c-.03.04-.075.06-.137.06H75.3v-1.593h.095a.702.702 0 00.213-.034.484.484 0 00.2-.135c.064-.068.125-.164.182-.288.058-.124.11-.288.156-.491.046-.204.087-.453.122-.748s.063-.647.083-1.056h2.063zm5.326 0v2.73h1.36V9.05h.66v2.73h.576v1.409a.211.211 0 01-.052.15.178.178 0 01-.136.056h-.41v-1.1h-2.66V9.05h.662zM73.703 9c.194 0 .372.032.537.097.164.065.306.16.425.285.12.125.212.278.279.46.067.18.1.387.1.618 0 .106-.011.177-.034.213-.023.036-.064.054-.123.054h-2.02c.009.185.037.345.084.48.047.134.11.246.19.335a.74.74 0 00.283.199c.11.043.233.065.369.065.129 0 .241-.016.335-.046.095-.031.177-.065.247-.102.07-.037.13-.071.179-.102a.26.26 0 01.136-.046.14.14 0 01.123.064l.188.25a1.213 1.213 0 01-.265.242 1.51 1.51 0 01-.315.161 1.71 1.71 0 01-.342.09 2.243 2.243 0 01-.342.026 1.6 1.6 0 01-.606-.113 1.343 1.343 0 01-.484-.332 1.547 1.547 0 01-.32-.544 2.223 2.223 0 01-.116-.747c0-.225.034-.435.103-.63a1.5 1.5 0 01.296-.51c.129-.144.285-.258.469-.341.184-.084.392-.126.624-.126zm31.335 0c.194 0 .372.032.537.097.164.065.306.16.425.285.12.125.213.278.28.46.066.18.1.387.1.618a.456.456 0 01-.034.213c-.023.036-.064.054-.124.054h-2.019c.008.185.036.345.083.48.047.134.11.246.19.335a.736.736 0 00.284.199 1 1 0 00.368.065c.13 0 .241-.016.336-.046.094-.031.177-.065.246-.102.07-.037.13-.071.18-.102a.26.26 0 01.135-.046.14.14 0 01.123.064l.188.25a1.213 1.213 0 01-.265.242c-.099.066-.204.12-.314.161a1.713 1.713 0 01-.343.09c-.117.017-.23.026-.341.026a1.6 1.6 0 01-.606-.113 1.343 1.343 0 01-.484-.332 1.547 1.547 0 01-.321-.544 2.223 2.223 0 01-.116-.747c0-.225.035-.435.104-.63a1.5 1.5 0 01.296-.51c.128-.144.284-.258.468-.341.184-.084.392-.126.624-.126zm-9.79 0c.228 0 .429.038.603.115.173.076.328.184.464.324l-.176.248a.348.348 0 01-.059.064c-.018.015-.045.022-.08.022a.195.195 0 01-.11-.038 2.974 2.974 0 00-.135-.084.864.864 0 00-.467-.122.845.845 0 00-.378.079.738.738 0 00-.27.227 1.02 1.02 0 00-.164.36c-.036.14-.054.299-.054.475 0 .183.02.345.058.487.04.142.095.262.168.36a.73.73 0 00.615.298.859.859 0 00.312-.047.955.955 0 00.2-.106c.054-.038.1-.073.137-.104a.185.185 0 01.122-.048.14.14 0 01.123.064l.188.25c-.076.096-.16.177-.252.243a1.445 1.445 0 01-.614.25 2.089 2.089 0 01-.336.027 1.32 1.32 0 01-.547-.114 1.277 1.277 0 01-.444-.327 1.568 1.568 0 01-.299-.525 2.119 2.119 0 01-.11-.708c0-.24.034-.462.099-.666.066-.205.162-.381.289-.53a1.32 1.32 0 01.47-.348c.187-.084.403-.126.647-.126zm-15.08.051v2.033a2.897 2.897 0 01-.028.315c.04-.098.083-.178.126-.242l1.366-1.934a.484.484 0 01.099-.118.205.205 0 01.138-.054h.401v3.245h-.663v-2.033a1.993 1.993 0 01.025-.309c-.02.047-.04.09-.06.13a.761.761 0 01-.063.106l-1.366 1.937a.521.521 0 01-.099.116.2.2 0 01-.139.056h-.4V9.05h.662zm7.345 0v2.033c0 .044-.002.094-.007.15-.005.054-.012.11-.02.165.04-.098.083-.178.126-.242l1.366-1.934a.476.476 0 01.098-.118.205.205 0 01.139-.054h.4v3.245h-.662v-2.033a1.993 1.993 0 01.025-.309c-.02.047-.04.09-.06.13a.761.761 0 01-.063.106l-1.366 1.937a.52.52 0 01-.1.116.2.2 0 01-.138.056h-.4V9.05h.662zm13.299 0v2.033a2.895 2.895 0 01-.028.315c.041-.098.083-.178.127-.242l1.365-1.934a.484.484 0 01.099-.118.206.206 0 01.138-.054h.401v3.245h-.663v-2.033a2.209 2.209 0 01.025-.309c-.02.047-.04.09-.06.13a.761.761 0 01-.063.106l-1.366 1.937a.528.528 0 01-.098.116.201.201 0 01-.139.056h-.401V9.05h.663zm-3.274 0v1.365h.269a.416.416 0 00.215-.052.42.42 0 00.148-.155l.598-.974a.378.378 0 01.312-.184h.518l-.774 1.218a.947.947 0 01-.154.2.549.549 0 01-.198.118c.101.03.185.075.252.136.066.06.127.138.18.233l.78 1.34h-.456a.514.514 0 01-.273-.06.49.49 0 01-.165-.179l-.534-.948a.424.424 0 00-.169-.178.49.49 0 00-.237-.057h-.312v1.425h-.662V9.05h.662zm-6.452 0v1.257h1.36V9.05h.66v3.245h-.66v-1.473h-1.36v1.473h-.662V9.05h.662zm-22.543-.01a.31.31 0 01.134.032.276.276 0 01.116.124l.853 1.508c.03.055.055.115.08.178l.068.191.071-.19c.025-.064.052-.124.08-.179l.842-1.508a.247.247 0 01.114-.125c.045-.02.09-.03.136-.03h.54v3.254h-.596v-1.963a3.65 3.65 0 01.043-.47l-1.002 1.857a.253.253 0 01-.08.09.195.195 0 01-.11.034h-.072a.185.185 0 01-.109-.033.254.254 0 01-.079-.091l-1.02-1.868c.012.075.023.156.033.244.009.088.013.167.013.237v1.963H68V9.042h.543zm9.23.541h-.882a9.745 9.745 0 01-.08.799 6.795 6.795 0 01-.116.625 3.41 3.41 0 01-.147.467c-.053.13-.109.24-.166.33h1.39v-2.22zm27.278-.086c-.24 0-.43.071-.568.213-.137.142-.224.342-.262.598h1.563c0-.114-.015-.22-.047-.32a.755.755 0 00-.14-.257.644.644 0 00-.23-.172.76.76 0 00-.316-.062zm-31.336 0c-.24 0-.43.071-.567.213-.137.142-.225.342-.262.598h1.563c0-.114-.016-.22-.047-.32a.761.761 0 00-.14-.257.644.644 0 00-.23-.172.762.762 0 00-.317-.062zM44.72 7.589a.716.716 0 00-.175-.524.715.715 0 00-.546-.248.72.72 0 00-.544 1.195.718.718 0 00.495.247.72.72 0 00.77-.67m8.288 15.65a.714.714 0 00.524-.176.717.717 0 00.246-.495.717.717 0 00-.721-.773.722.722 0 00-.05 1.443M61 17.003C61 7.613 53.389 0 44 0S27 7.612 27 17.003c0 8.152 5.735 14.962 13.39 16.618V23.346a.197.197 0 00-.058-.139l-1.747-1.748a.196.196 0 00-.14-.057h-1.788a.195.195 0 00-.183.127 1.636 1.636 0 01-1.53 1.054h-.016a1.644 1.644 0 01-1.18-.528 1.642 1.642 0 01-.444-1.212 1.635 1.635 0 011.752-1.538 1.631 1.631 0 011.418 1.051c.03.077.101.126.183.126h2.115c.087 0 .17.035.232.097l2.21 2.21a.326.326 0 01.095.231v10.773c.73.117 1.474.187 2.231.207V20.577a.197.197 0 00-.057-.139l-4.897-4.898a.198.198 0 00-.14-.058h-3.359a.195.195 0 00-.183.128 1.644 1.644 0 01-1.53 1.054h-.014a1.646 1.646 0 01-1.182-.529 1.643 1.643 0 01-.444-1.212c.027-.443.226-.848.561-1.139a1.63 1.63 0 011.191-.399 1.63 1.63 0 011.418 1.052c.03.076.101.126.183.126h2.743a.197.197 0 00.197-.197v-1.961a.197.197 0 00-.129-.184 1.633 1.633 0 01-1.048-1.646c.03-.437.229-.836.56-1.124.33-.287.754-.429 1.19-.398.438.03.837.23 1.125.56.287.33.429.754.399 1.191a1.631 1.631 0 01-1.052 1.419.195.195 0 00-.126.183v2.113a.2.2 0 00.057.14l4.426 4.425a.064.064 0 00.071.014c.01-.004.04-.02.04-.06V9.252a.197.197 0 00-.128-.183 1.633 1.633 0 01-1.049-1.645c.03-.438.23-.837.56-1.125.33-.287.755-.429 1.191-.399.437.031.837.23 1.124.56.288.332.43.755.399 1.192a1.632 1.632 0 01-1.05 1.419.195.195 0 00-.127.183v12.147c0 .04.03.057.04.06.01.004.043.015.071-.014l4.425-4.425a.197.197 0 00.058-.14v-3.69a.197.197 0 00-.128-.184 1.633 1.633 0 01-1.05-1.646c.031-.437.23-.836.56-1.124a1.63 1.63 0 011.192-.399c.437.031.836.23 1.124.561.287.33.43.754.398 1.191a1.631 1.631 0 01-1.05 1.418.195.195 0 00-.127.183v3.54c0 .108.088.197.197.197h2.748c.082 0 .154-.05.183-.128a1.636 1.636 0 011.646-1.05c.438.03.837.23 1.124.56.288.331.43.754.4 1.192a1.63 1.63 0 01-.561 1.124c-.328.285-.755.43-1.191.399a1.649 1.649 0 01-1.416-1.05.198.198 0 00-.184-.128h-3.368a.194.194 0 00-.138.058l-4.896 4.896a.197.197 0 00-.057.139V34c.757-.02 1.502-.09 2.231-.207v-9.197c0-.087.035-.17.096-.232l2.21-2.21a.328.328 0 01.232-.096h2.254c.088-.302.26-.57.498-.779.33-.287.755-.43 1.191-.399.437.031.837.23 1.124.56.288.332.43.755.399 1.192a1.64 1.64 0 01-3.21.346h-1.93a.196.196 0 00-.14.057l-1.747 1.748a.197.197 0 00-.058.14v8.698C55.265 31.965 61 25.155 61 17.003m-26.008 3.219a.72.72 0 00-.595 1.194.716.716 0 00.495.246.717.717 0 00.523-.175.717.717 0 00.247-.495.714.714 0 00-.175-.523.716.716 0 00-.495-.247m19.591-2.113a.717.717 0 00.77-.67.717.717 0 00-.721-.772.722.722 0 00-.049 1.442M39.206 10.74a.716.716 0 00-.175-.524.715.715 0 00-.546-.248.721.721 0 10.721.772m10.781 1.283a.717.717 0 00.247-.495.715.715 0 00-.176-.524.718.718 0 00-1.018-.071.719.719 0 00-.07 1.018.716.716 0 00.493.247.713.713 0 00.524-.175m-16.07 2.526a.716.716 0 01.175.524.717.717 0 01-.246.495.718.718 0 01-1.018-.071.716.716 0 01-.176-.525.722.722 0 011.265-.423" fill="#BDBDBD" fill-rule="evenodd"/></svg>